<?xml version="1.0" encoding="UTF-8" standalone="no"?>
<!-- Created with Inkscape (http://www.inkscape.org/) -->

<svg
   xmlns:osb="http://www.openswatchbook.org/uri/2009/osb"
   xmlns:dc="http://purl.org/dc/elements/1.1/"
   xmlns:cc="http://creativecommons.org/ns#"
   xmlns:rdf="http://www.w3.org/1999/02/22-rdf-syntax-ns#"
   xmlns:svg="http://www.w3.org/2000/svg"
   xmlns="http://www.w3.org/2000/svg"
   xmlns:sodipodi="http://sodipodi.sourceforge.net/DTD/sodipodi-0.dtd"
   xmlns:inkscape="http://www.inkscape.org/namespaces/inkscape"
   version="1.1"
   id="svg2"
   width="1083.4004"
   height="567.92126"
   viewBox="0 0 1083.4004 567.92126"
   sodipodi:docname="EM-Logo.svg"
   inkscape:version="0.92.4 (5da689c313, 2019-01-14)">
  <metadata
     id="metadata8">
    <rdf:RDF>
      <cc:Work
         rdf:about="">
        <dc:format>image/svg+xml</dc:format>
        <dc:type
           rdf:resource="http://purl.org/dc/dcmitype/StillImage" />
        <dc:title></dc:title>
      </cc:Work>
    </rdf:RDF>
  </metadata>
  <defs
     id="defs6">
    <linearGradient
       id="linearGradient1209"
       osb:paint="solid">
      <stop
         style="stop-color:#9f9f9f;stop-opacity:1;"
         offset="0"
         id="stop1207" />
    </linearGradient>
    <linearGradient
       id="linearGradient1203"
       osb:paint="solid">
      <stop
         style="stop-color:#9f9f9f;stop-opacity:1;"
         offset="0"
         id="stop1201" />
    </linearGradient>
  </defs>
  <sodipodi:namedview
     pagecolor="#ffffff"
     bordercolor="#666666"
     borderopacity="1"
     objecttolerance="10"
     gridtolerance="10"
     guidetolerance="10"
     inkscape:pageopacity="0"
     inkscape:pageshadow="2"
     inkscape:window-width="1366"
     inkscape:window-height="705"
     id="namedview4"
     showgrid="false"
     inkscape:zoom="0.52837209"
     inkscape:cx="547.23209"
     inkscape:cy="254.4822"
     inkscape:window-x="-8"
     inkscape:window-y="-8"
     inkscape:window-maximized="1"
     inkscape:current-layer="svg2"
     showguides="true"
     inkscape:guide-bbox="true" />
  <g
     id="g2833"
     transform="translate(-0.93945312)">
    <path
       id="rect838"
       d="m 291.97656,235.41406 -97.48047,69.91992 v 123.62696 h 85.86133 v 0.0117 l 174.33399,-0.0684 45.24414,-32.00977 v 76.94727 h 97.47851 V 279.80859 l -28.94336,20.8125 -0.28711,-0.40429 -126.06054,89.18554 -150.14649,0.0606 v -75.04101 h 113.01953 v -41 H 291.97656 Z"
       style="opacity:1;fill:#aaaaaa;fill-opacity:1;fill-rule:evenodd;stroke:#828282;stroke-width:2.5;stroke-linecap:square;stroke-linejoin:round;stroke-miterlimit:4;stroke-dasharray:none;stroke-opacity:0.8;paint-order:fill markers stroke"
       inkscape:connector-curvature="0" />
    <path
       sodipodi:nodetypes="ccccc"
       inkscape:connector-curvature="0"
       id="rect838-3-0"
       d="M 895.72611,350.30863 798.24683,280.21407 V 474.2465 h 97.47928 z"
       style="opacity:1;fill:#aaaaaa;fill-opacity:1;fill-rule:evenodd;stroke:#828282;stroke-width:2.5;stroke-linecap:square;stroke-linejoin:round;stroke-miterlimit:4;stroke-dasharray:none;stroke-opacity:0.8;paint-order:fill markers stroke" />
    <path
       id="rect990"
       d="m 572.77344,199.92188 -63.48438,46.26757 1.51953,60.99024 84.77149,-60.13281 h 1.62695 l 111.51953,71.63476 96.63282,-71.51367 90.17773,64.18945 v -63.38281 l -61.20313,-48.05273 h -54.03906 -0.71484 v 0.52929 l -70.85547,52.43555 -81.19727,-52.1582 v -0.80664 h -1.25586 z"
       style="opacity:1;fill:#aaaaaa;fill-opacity:1;fill-rule:evenodd;stroke:#828282;stroke-width:2.5;stroke-linecap:square;stroke-linejoin:round;stroke-miterlimit:4;stroke-dasharray:none;stroke-opacity:0.8;paint-order:fill markers stroke"
       inkscape:connector-curvature="0" />
    <path
       inkscape:connector-curvature="0"
       id="rect843-6-3"
       d="m 259.42176,177.19555 v 0.87304 l -65.42969,47.64258 v 47.29688 l 79.21485,-56.54102 h 218.29492 v -39.27148 z"
       style="opacity:1;fill:#aaaaaa;fill-opacity:1;fill-rule:evenodd;stroke:#828282;stroke-width:2.5;stroke-miterlimit:4;stroke-dasharray:none;stroke-opacity:0.8;paint-order:normal" />
    <path
       id="rect1127"
       d="M 517.08984,0 328.64062,140.0957 h 124.3086 L 497.25,108.89258 h 39.67969 l 175.74023,123.7832 56.80469,-45.04883 z M 174.78516,260.62109 0.93945312,389.42383 110.13867,388.11523 175.7832,338.83008 Z m 735.70898,35.95899 -0.99805,78.21094 65.64453,49.2832 109.19918,1.30859 z"
       style="opacity:1;fill:#251973;fill-opacity:1;fill-rule:evenodd;stroke:none;stroke-width:0.60094488;stroke-linecap:square;stroke-linejoin:round;stroke-miterlimit:4;stroke-dasharray:none;stroke-opacity:1;paint-order:fill markers stroke"
       inkscape:connector-curvature="0" />
    <rect
       y="487.00916"
       x="102.72511"
       height="80.912086"
       width="876.16449"
       id="rect1134"
       style="opacity:1;fill:#251973;fill-opacity:1;fill-rule:evenodd;stroke:none;stroke-width:0.60094488;stroke-linecap:square;stroke-linejoin:round;stroke-miterlimit:4;stroke-dasharray:none;stroke-opacity:1;paint-order:fill markers stroke" />
    <path
       id="text1138"
       d="m 401.91016,496.28906 c -11.2191,0 -20.01543,2.58185 -26.39063,7.74219 -6.37519,5.13565 -9.5625,12.13412 -9.5625,20.99805 0,8.78985 3.18731,15.77786 9.5625,20.96289 6.3752,5.16033 15.17153,7.74023 26.39063,7.74023 11.25034,0 20.06425,-2.5799 26.43945,-7.74023 6.37519,-5.18503 9.5625,-12.17304 9.5625,-20.96289 0,-8.86393 -3.20293,-15.8624 -9.60938,-20.99805 -6.40644,-5.16034 -15.20473,-7.74219 -26.39257,-7.74219 z m 444.51757,0.87891 c -11.04412,0 -19.70469,2.53928 -25.98046,7.61914 -6.27578,5.05555 -9.41211,11.94618 -9.41211,20.67187 0,8.65278 3.13633,15.53256 9.41211,20.63672 6.27577,5.07986 14.93634,7.61914 25.98046,7.61914 11.0749,0 19.74962,-2.53928 26.02539,-7.61914 6.27578,-5.10416 9.41407,-11.98394 9.41407,-20.63672 0,-8.72569 -3.15245,-15.61632 -9.45899,-20.67187 -6.30653,-5.07986 -14.9671,-7.61914 -25.98047,-7.61914 z m -701.28711,0.26953 v 55.14648 h 50.48633 v -10.66601 h -32.58007 v -13.62891 h 30.23632 v -10.66601 h -30.23632 v -9.51953 h 32.58007 V 497.4375 Z m 66.66797,0 v 35.22266 c 0,6.78991 2.60922,11.99938 7.82813,15.6289 5.25016,3.62952 12.98406,5.44336 23.20312,5.44336 10.21907,0 17.95492,-1.81384 23.20508,-5.44336 5.25016,-3.62952 7.875,-8.85141 7.875,-15.66601 V 497.4375 h -18.0957 v 34.40625 c 0,3.97519 -1.04681,6.86555 -3.14063,8.66797 -2.06256,1.80241 -5.34361,2.70312 -9.84375,2.70312 -4.56264,0 -7.85931,-0.93796 -9.89062,-2.81445 -2.03131,-1.87649 -3.04688,-4.7296 -3.04688,-8.55664 V 497.4375 Z m 81.01172,0 v 55.14648 h 17.90625 v -20.2207 h 8.29688 l 19.0332,20.2207 h 21.98438 l -23.29688,-23.6289 c 4.43764,-1.70365 7.84368,-3.83843 10.21875,-6.40625 2.40632,-2.56782 3.60938,-5.88894 3.60938,-9.96289 0,-2.96288 -0.78121,-5.42054 -2.34375,-7.3711 -1.5313,-1.97524 -3.6093,-3.57992 -6.23438,-4.81445 -2.59383,-1.23453 -5.37686,-2.03589 -8.3457,-2.40625 -2.96884,-0.37036 -6.5155,-0.55664 -10.64063,-0.55664 z m 216.39844,0.86133 v 54.28515 h 16.70508 v -36.34765 l 12.73633,23.58789 h 12.22851 L 563.625,516.23633 v 36.34765 h 17.62695 v -54.28515 h -20.58007 l -15.41407,27.23437 -15.45898,-27.23437 z m 91.54687,0 v 54.28515 h 49.69922 v -10.5 h -32.07031 v -13.41601 h 29.76367 v -10.5 h -29.76367 v -9.36914 h 32.07031 v -10.5 z m 59.75391,0 v 10.5 h 21.45703 v 43.78515 h 17.72071 v -43.78515 h 21.45703 v -10.5 z m 73.31836,0 v 54.28515 h 17.7207 v -23.91601 h 26.16407 v 23.91601 h 17.7207 v -54.28515 h -17.7207 v 19.86914 h -26.16407 v -19.86914 z m 163.5293,0 v 54.28515 h 24.22656 c 5.47592,0 10.21362,-0.31532 14.21289,-0.94726 3.99927,-0.63195 7.67607,-1.74935 11.0293,-3.35352 4.46072,-2.13889 8.15168,-5.20139 11.07422,-9.1875 2.92254,-4.01041 4.38281,-8.54405 4.38281,-13.59961 0,-5.25 -1.36751,-9.80729 -4.10547,-13.67187 -2.7072,-3.88889 -6.43038,-6.97504 -11.16797,-9.25977 -2.76872,-1.36111 -6.18335,-2.40755 -10.24414,-3.13672 -4.06079,-0.75347 -8.89126,-1.1289 -14.49023,-1.1289 z m -495.41016,8.39844 c 2.25007,0 4.40619,0.33335 6.46875,1 2.09382,0.66664 3.93941,1.74122 5.5332,3.22265 1.56255,1.43206 2.8281,3.30799 3.79688,5.62891 0.96878,2.32092 1.45312,5.13482 1.45312,8.44336 0,3.08632 -0.42184,5.77799 -1.26562,8.07422 -0.84378,2.27153 -2.14057,4.24682 -3.89063,5.92578 -1.56254,1.48143 -3.39251,2.58084 -5.48632,3.29687 -2.09382,0.69134 -4.29681,1.03711 -6.60938,1.03711 -2.31257,0 -4.51556,-0.34577 -6.60937,-1.03711 -2.09382,-0.69133 -3.92183,-1.76591 -5.48438,-3.22265 -1.56255,-1.45675 -2.82809,-3.33268 -3.79687,-5.62891 -0.93753,-2.32092 -1.40625,-5.12435 -1.40625,-8.4082 0,-3.20978 0.48434,-6.02368 1.45312,-8.44336 1.00003,-2.44437 2.2812,-4.35756 3.84375,-5.74024 1.68755,-1.48143 3.53119,-2.54359 5.53125,-3.18554 2.03131,-0.64196 4.18743,-0.96289 6.46875,-0.96289 z m 444.51758,0.71484 c 2.21498,0 4.33679,0.32812 6.36719,0.98437 2.06116,0.65625 3.87637,1.71355 5.44531,3.17188 1.53818,1.40972 2.78461,3.25825 3.73828,5.54297 0.95367,2.28472 1.42969,5.05555 1.42969,8.3125 0,3.03819 -0.41548,5.68685 -1.2461,7.94726 -0.83061,2.23611 -2.10731,4.18121 -3.83007,5.83399 -1.53818,1.45833 -3.33728,2.53928 -5.39844,3.24414 -2.06116,0.68055 -4.22935,1.02148 -6.50586,1.02148 -2.27651,0 -4.44665,-0.34093 -6.50781,-1.02148 -2.06116,-0.68056 -3.86026,-1.73785 -5.39844,-3.17188 -1.53818,-1.43402 -2.78461,-3.2806 -3.73828,-5.54101 -0.92291,-2.28472 -1.38281,-5.04471 -1.38281,-8.27735 0,-3.15972 0.47601,-5.93055 1.42968,-8.3125 0.98444,-2.40625 2.24503,-4.28928 3.78321,-5.65039 1.66123,-1.45833 3.47644,-2.50282 5.44531,-3.13476 1.99963,-0.63195 4.1234,-0.94922 6.36914,-0.94922 z m -535.74805,0.17383 h 6.51563 c 2.15631,0 4.04682,0.0497 5.67187,0.14844 1.62505,0.0741 3.04684,0.30807 4.26563,0.70312 1.75005,0.56788 2.98435,1.34636 3.70312,2.33398 0.71877,0.98763 1.07813,2.17202 1.07813,3.55469 0,1.55551 -0.29686,2.80199 -0.89063,3.74024 -0.56251,0.91355 -1.46871,1.75412 -2.71875,2.51953 -1.31254,0.7901 -2.93744,1.29536 -4.875,1.51758 -1.93756,0.22221 -4.34366,0.33398 -7.21875,0.33398 h -5.53125 z m 604.36133,0.84765 h 4.47461 c 3.81469,0 6.66053,0.13303 8.53711,0.40039 1.90734,0.24306 3.76893,0.71702 5.58398,1.42188 3.56858,1.43403 6.16836,3.42839 7.79883,5.98047 1.66124,2.52778 2.49219,5.57747 2.49219,9.15039 0,3.59722 -0.7543,6.62326 -2.26172,9.07812 -1.50742,2.43056 -3.87529,4.37565 -7.10547,5.83399 -1.87658,0.80208 -3.80066,1.35981 -5.76953,1.67578 -1.96887,0.29167 -5.06078,0.4375 -9.27539,0.4375 h -4.47461 z"
       style="font-style:normal;font-variant:normal;font-weight:bold;font-stretch:normal;font-size:84.00254822px;line-height:270.01000977px;font-family:'Segoe MDL2 Assets';-inkscape-font-specification:'Segoe MDL2 Assets Bold';letter-spacing:1.79999995px;word-spacing:0px;fill:#f2f2f2;fill-opacity:1;stroke:#a8a8a8;stroke-width:0.99999988;stroke-opacity:0.8"
       inkscape:connector-curvature="0" />
    <path
       style="fill:#251973;fill-opacity:1;stroke:#251973;stroke-width:1;stroke-opacity:1"
       d="m 689.46052,477.98578 c -14.89913,-2.57621 -28.39684,-9.59109 -39.34265,-20.44675 -6.18808,-6.13712 -9.1433,-9.99654 -12.64051,-16.50814 -6.00225,-11.17582 -8.41156,-22.12431 -7.81722,-35.52327 0.8178,-18.43641 7.40476,-32.55603 21.43647,-45.95062 10.59665,-10.1155 19.86425,-15.19666 34.37441,-18.84654 6.55445,-1.64871 20.54858,-2.24164 28.10028,-1.19061 22.51591,3.13372 42.95749,16.84989 54.12607,36.31823 9.18437,16.00962 11.08087,37.47247 4.87952,55.22185 -3.78593,10.83603 -8.85813,18.50621 -18.02394,27.25584 -11.49543,10.97346 -23.64222,17.13646 -38.88927,19.7315 -6.50665,1.10744 -19.6208,1.07666 -26.20316,-0.0615 z m -1.96826,-4.84604 c -5.94627,-3.44669 -9.29653,-5.71892 -12.87666,-8.73326 l -3.87349,-3.26134 h -4.92359 c -2.70798,0 -5.09698,0.26781 -5.3089,0.59513 -1.41127,2.17979 21.09249,12.66886 27.31609,12.7321 l 2.0007,0.0203 -2.33415,-1.35297 z m 36.81187,-0.28239 c 8.79449,-2.63184 21.84664,-9.57498 20.86114,-11.09715 -0.21902,-0.33828 -2.77133,-0.61506 -5.6718,-0.61506 -5.25794,0 -5.28309,0.008 -8.47185,2.70563 -4.31619,3.65137 -9.2543,7.03288 -12.68517,8.68652 -1.55889,0.75137 -2.83433,1.50354 -2.83433,1.67149 0,0.74394 3.69686,0.17633 8.80201,-1.35143 z m -23.61554,-5.50517 -0.19175,-5.88873 -5.94126,-0.18542 c -3.2677,-0.10197 -6.21563,0.0765 -6.55097,0.39662 -1.32665,1.26641 9.27235,11.56627 11.9022,11.56627 0.79709,0 0.93877,-1.06723 0.78178,-5.88874 z m 8.40385,3.61552 c 3.85194,-2.80763 8.69729,-8.53008 7.88179,-9.30855 -0.3264,-0.31159 -3.26703,-0.48309 -6.53473,-0.38112 l -5.94126,0.18542 -0.19175,5.88873 c -0.22401,6.87946 0.0372,7.07681 4.78595,3.61552 z m -23.17349,-5.52538 c -2.73416,-3.6439 -3.21469,-3.99535 -5.70786,-4.17463 -3.69834,-0.26594 -3.55599,0.93676 0.44543,3.76352 7.98152,5.63844 9.25963,5.73829 5.26243,0.41111 z m 36.81449,0.77919 c 5.50186,-3.68835 6.08325,-5.07637 2.12633,-5.07637 -2.42234,0 -2.86391,0.28317 -5.21182,3.34225 -1.41089,1.83824 -2.78854,3.70036 -3.06145,4.13803 -1.05911,1.69853 1.54871,0.67868 6.14694,-2.40391 z m -55.61062,-8.21475 c 0.21077,-0.32555 -1.0382,-2.53293 -2.77548,-4.90529 -1.73728,-2.37236 -4.51794,-6.90453 -6.17925,-10.07148 l -3.02055,-5.75809 -7.27889,-0.18176 c -4.05369,-0.10122 -7.56329,0.0897 -7.92074,0.43095 -1.36313,1.30124 9.03526,16.06339 13.87458,19.69716 1.55082,1.16449 2.70485,1.38041 7.37774,1.38041 3.04665,0 5.71182,-0.26635 5.92259,-0.5919 z m 12.85788,0.0724 c 0.62285,-0.37763 0.32268,-1.64064 -1.22633,-5.16 -1.12807,-2.56298 -2.77627,-6.97291 -3.66266,-9.79985 -0.88638,-2.82694 -1.98511,-5.3663 -2.44162,-5.64304 -0.45651,-0.27673 -3.46536,-0.50754 -6.68633,-0.5129 -4.40918,-0.007 -5.94477,0.2103 -6.21428,0.88073 -0.69345,1.72503 6.65611,13.77975 11.1982,18.36727 2.03703,2.05739 2.76756,2.38597 5.286,2.37757 1.60727,-0.005 3.29343,-0.23476 3.74702,-0.50978 z m 19.79469,0.13311 c 1.58305,-0.57989 1.58305,-20.29234 0,-20.87223 -1.55453,-0.56944 -21.14669,-0.45157 -22.11088,0.13302 -1.76192,1.06828 5.42308,19.71925 7.9734,20.69753 1.22155,0.46857 12.87828,0.50294 14.13748,0.0417 z m 19.37108,-0.0113 c 2.42393,-0.88792 9.65524,-18.80243 8.24464,-20.42493 -0.52731,-0.60652 -3.39263,-0.82239 -10.91576,-0.82239 -5.61042,0 -10.67547,0.17389 -11.25566,0.38642 -0.90038,0.32982 -1.0549,1.86071 -1.0549,10.45118 0,7.45613 0.21607,10.14797 0.83363,10.38585 1.22064,0.47018 12.87599,0.48984 14.14805,0.0239 z m 13.82936,-0.83968 c 3.7091,-2.7851 13.03295,-17.61864 12.26901,-19.51905 -0.48123,-1.19713 -12.59277,-1.28012 -13.54528,-0.0928 -0.35113,0.43768 -1.15544,2.67302 -1.78737,4.96742 -0.63193,2.2944 -2.1641,6.575 -3.40483,9.51245 -1.24073,2.93744 -2.10603,5.57224 -1.92289,5.85512 0.68702,1.06115 6.70589,0.54248 8.39136,-0.72312 z m 18.86366,-0.14298 c 4.83727,-3.63222 15.23774,-18.3959 13.87538,-19.69639 -0.35844,-0.34218 -3.98147,-0.53216 -8.21834,-0.43095 l -7.57728,0.18099 -3.43263,6.49458 c -1.88794,3.57203 -4.69417,8.08962 -6.23606,10.03911 -1.54189,1.94948 -2.62155,3.82544 -2.39926,4.1688 0.2223,0.34335 3.04695,0.62427 6.277,0.62427 5.01497,0 6.14134,-0.20164 7.71119,-1.38041 z m -98.13564,-23.2886 c 0.16625,-0.26261 -0.27482,-2.62606 -0.98016,-5.25212 -0.70533,-2.62605 -1.65576,-7.78267 -2.11205,-11.45915 l -0.82962,-6.68451 -7.89307,-0.17995 c -4.57824,-0.10438 -8.23053,0.0874 -8.6966,0.45662 -1.60834,1.27421 1.50177,18.48381 4.00551,22.16418 0.91669,1.3475 1.42575,1.43239 8.58908,1.43239 4.18805,0 7.75066,-0.21486 7.91691,-0.47746 z m 18.21874,-0.19336 c 0.46812,-0.44685 0.50346,-1.7174 0.10587,-3.8056 -0.32828,-1.72413 -0.95962,-6.79374 -1.40298,-11.2658 l -0.80611,-8.13102 h -8.00281 -8.00282 l 0.0741,4.82342 c 0.0757,4.92993 1.69636,13.27275 3.29868,16.98081 l 0.89406,2.06901 h 6.56966 c 3.71387,0 6.87514,-0.2916 7.27239,-0.67082 z m 28.57425,-11.42496 v -11.77746 h -13.33803 -13.33803 l 0.0924,5.90451 c 0.10751,6.8682 1.38264,16.01838 2.39515,17.18728 0.53033,0.61224 3.56988,0.76773 12.4451,0.63662 l 11.74339,-0.17348 z m 28.20272,11.30001 c 0.89997,-1.03849 2.96102,-16.55782 2.68695,-20.23227 l -0.21221,-2.8452 h -13.33803 -13.33803 l -0.18309,11.11848 c -0.10069,6.11516 -0.0351,11.48664 0.1458,11.93662 0.46619,1.15972 23.23475,1.18073 24.23861,0.0224 z m 18.65813,0 c 1.38975,-1.63955 3.63478,-12.24628 3.7284,-17.61492 l 0.0952,-5.46255 h -8.00282 -8.00281 l -0.53457,5.72958 c -0.29402,3.15127 -0.91418,8.23155 -1.37813,11.28951 -0.57148,3.76668 -0.62492,5.76866 -0.16568,6.20705 1.00905,0.96323 13.42762,0.83376 14.26036,-0.14867 z m 20.71789,-0.0306 c 2.29971,-2.64515 6.00969,-21.30006 4.51903,-22.72304 -0.76811,-0.73324 -15.6877,-0.87067 -16.81405,-0.15489 -0.4048,0.25725 -0.94412,2.75955 -1.1985,5.56068 -0.25437,2.80113 -1.07628,7.61061 -1.82644,10.68774 -0.75017,3.07714 -1.19561,6.01355 -0.98987,6.52536 0.51059,1.27017 15.21446,1.36407 16.30983,0.10415 z M 649.18719,407.18196 c 0.38977,-0.25725 1.0562,-3.33251 1.48096,-6.83392 0.42476,-3.50141 1.34957,-8.51479 2.05513,-11.14085 0.70556,-2.62606 1.14682,-4.98951 0.98057,-5.25212 -0.55088,-0.87015 -15.32738,-0.55981 -16.10821,0.33831 -2.20969,2.54162 -5.69061,19.57877 -4.56985,22.36682 0.33736,0.83922 1.67141,1.00733 7.92917,0.99922 4.13796,-0.005 7.84247,-0.22022 8.23223,-0.47746 z m 20.03076,0 c 0.4028,-0.25725 1.09314,-4.33693 1.53407,-9.06598 0.44094,-4.72905 1.03746,-9.5992 1.32561,-10.82255 0.87092,-3.69754 0.65522,-3.81582 -6.95868,-3.81582 -6.16006,0 -6.99947,0.13563 -7.6131,1.23016 -1.96798,3.51023 -4.75217,19.59898 -3.80108,21.96494 0.32955,0.81982 1.67514,0.99474 7.59068,0.98671 3.95457,-0.005 7.51969,-0.22022 7.9225,-0.47746 z m 30.79457,-0.0469 c 0.64791,-0.39252 0.80617,-3.22283 0.66691,-11.92687 l -0.18259,-11.41225 -11.74339,-0.17348 c -9.11948,-0.13472 -11.90749,0.0153 -12.47781,0.67127 -0.86138,0.99076 -2.78831,14.27117 -2.78831,19.21698 0,2.13694 0.3121,3.53597 0.83363,3.73686 1.40082,0.53957 24.78424,0.43716 25.69156,-0.11252 z m 30.76452,-0.0514 c 0.75362,-0.45545 0.84678,-1.79024 0.47695,-6.83391 -0.57102,-7.78768 -1.73424,-14.9218 -2.6073,-15.9907 -0.50096,-0.61333 -3.51401,-0.76796 -12.40506,-0.63662 l -11.74339,0.17349 -0.18259,11.41223 c -0.13926,8.70405 0.019,11.53436 0.6669,11.92688 1.15935,0.70237 24.62464,0.65565 25.79449,-0.0514 z m 20.30905,-5.19536 c -0.0936,-5.36863 -2.33865,-15.97537 -3.7284,-17.61492 -0.93565,-1.10383 -14.29219,-1.11878 -14.67713,-0.0164 -0.14967,0.42864 -0.04,1.93266 0.24363,3.34226 0.28367,1.4096 0.86906,6.28714 1.30087,10.83897 0.43472,4.58258 1.11967,8.48981 1.53477,8.75501 0.41233,0.26342 4.05084,0.40666 8.08559,0.31831 l 7.33592,-0.16064 -0.0952,-5.46255 z m 21.38847,0.3696 c -0.0497,-5.31019 -2.22616,-14.7251 -4.01044,-17.3479 -0.92107,-1.35393 -1.41194,-1.43239 -8.96189,-1.43239 -9.15183,0 -8.76994,-0.33867 -6.96418,6.17599 0.5628,2.03039 1.37336,6.69965 1.80125,10.37613 0.42789,3.67648 1.09281,6.89976 1.47761,7.16285 0.3848,0.26309 4.30091,0.40633 8.70246,0.31831 l 8.00281,-0.16003 -0.0476,-5.09296 z M 654.38745,380.55887 c 0.55893,-0.20475 2.35649,-3.0022 3.99456,-6.21657 1.63808,-3.21436 4.385,-7.66836 6.10426,-9.89777 3.7971,-4.92379 3.50435,-5.28016 -4.12681,-5.02364 -6.38191,0.21452 -6.98642,0.61399 -13.63953,9.01318 -5.16503,6.52057 -7.69762,11.1946 -6.46865,11.93823 1.00466,0.60791 12.56929,0.76053 14.13617,0.18657 z m 18.71879,-0.62814 c 0.5764,-0.55022 1.04799,-1.39336 1.04799,-1.87364 0,-1.33898 3.9849,-12.40933 5.47028,-15.19683 1.07172,-2.01123 1.15114,-2.57473 0.42481,-3.01419 -1.20518,-0.7292 -4.75596,-0.69989 -6.83994,0.0565 -3.25899,1.1828 -14.39518,17.81149 -13.46985,20.11336 0.55209,1.37341 11.9146,1.30101 13.36671,-0.0852 z m 26.66915,0.61398 c 1.58305,-0.57989 1.58305,-20.29234 0,-20.87223 -0.58019,-0.21253 -3.90406,-0.38642 -7.38638,-0.38642 -5.72555,0 -6.45933,0.13708 -7.6674,1.43239 -3.11082,3.33545 -8.63304,18.73786 -7.06001,19.69152 0.96628,0.5858 20.55657,0.70517 22.11379,0.13474 z m 27.61572,-0.43597 c 1.4106,-1.62249 -5.82071,-19.53701 -8.24464,-20.42493 -1.39423,-0.51072 -12.53874,-0.51979 -13.92678,-0.0113 -0.90038,0.32982 -1.0549,1.86071 -1.0549,10.45117 0,7.45614 0.21607,10.14798 0.83363,10.38586 0.45849,0.17661 5.52354,0.34372 11.25567,0.37136 7.75687,0.0374 10.60487,-0.16005 11.13702,-0.77213 z m 17.87336,-0.11503 c 0.49787,-1.23853 -4.8571,-10.77913 -8.78557,-15.65266 -3.25897,-4.04297 -4.97809,-5.06148 -8.5158,-5.04524 -3.81299,0.0175 -3.92662,0.50985 -1.46345,6.34145 1.24497,2.94747 2.77674,7.23628 3.40395,9.53068 0.6272,2.2944 1.60218,4.52974 2.16663,4.96742 1.55672,1.20711 12.70015,1.08748 13.19424,-0.14165 z m 20.14623,0.37859 c 1.22897,-0.74363 -1.30362,-5.41766 -6.46865,-11.93823 -6.72203,-8.48619 -7.20701,-8.79901 -13.97251,-9.01238 -7.97161,-0.25141 -8.27373,0.0784 -4.52468,4.93992 1.68409,2.1838 4.43305,6.58502 6.10879,9.78048 1.67574,3.19546 3.4025,6.02584 3.83724,6.28973 1.08565,0.65901 13.91636,0.60816 15.01981,-0.0595 z m -90.12781,-27.43079 c 2.497,-2.08893 6.42621,-4.85413 8.73157,-6.14488 6.96294,-3.89847 6.18642,-4.41562 -2.65661,-1.76925 -8.33892,2.4955 -21.20855,9.21873 -21.20855,11.07957 0,0.36599 2.23249,0.63263 5.2968,0.63263 h 5.29679 z m 10.41177,-0.1808 c 1.6468,-2.18838 2.71001,-4.07913 2.36268,-4.20165 -1.2958,-0.45712 -11.47346,6.66133 -10.86587,7.59979 0.20679,0.3194 1.53092,0.58073 2.9425,0.58073 2.38428,0 2.77912,-0.28252 5.56069,-3.97887 z m 14.99393,-2.22817 c 0.15257,-4.68574 0.003,-5.88874 -0.73357,-5.88874 -2.95632,0 -13.46801,10.28735 -11.97145,11.71596 0.24441,0.23331 3.15988,0.3426 6.47883,0.24286 l 6.03444,-0.18135 z m 16.45502,5.6102 c 0.53563,-0.82731 -4.77302,-6.90556 -8.22869,-9.4216 -4.42327,-3.22055 -4.75013,-2.97654 -4.75013,3.54614 0,3.09291 0.20007,5.81446 0.44461,6.04789 0.68878,0.65751 12.09851,0.50055 12.53421,-0.17243 z m 10.65999,0.0161 c 0.6076,-0.93846 -9.57006,-8.05691 -10.86586,-7.59979 -0.34733,0.12252 0.71588,2.01327 2.36267,4.20165 2.78157,3.69635 3.17641,3.97887 5.56069,3.97887 1.41159,0 2.73571,-0.26133 2.9425,-0.58073 z m 17.70908,-0.0519 c 0,-1.89499 -12.95728,-8.62734 -21.43482,-11.13711 -8.48062,-2.51069 -9.81527,-1.94856 -3.62099,1.52508 2.7521,1.54332 6.97897,4.47973 9.39303,6.52535 l 4.38921,3.71931 h 5.63678 c 3.28954,0 5.63679,-0.26344 5.63679,-0.63263 z"
       id="path1185"
       inkscape:connector-curvature="0" />
  </g>
</svg>
